<svg height="512" viewBox="0 0 64 64" width="512" xmlns="http://www.w3.org/2000/svg">
<g id="Glyph" fill="#c75e18">
    <path d="m26.739 12.538a26.05 26.05 0 0 0 -20.72 24.462h4.015c.498-12.932 10.48-20.8 16.705-24.462z"/>
    <circle cx="32" cy="8" r="2"/>
    <path d="m4 49.414v8.586l5.349-4.759a1 1 0 0 1 .651-.241h2v-8h-3.586z"/>
    <path d="m32.184 12.005c-1.874.771-19.456 8.473-20.149 24.995h45.946a26.031 26.031 0 0 0 -25.797-24.995zm-.184 3.995v-2a23.533 23.533 0 0 1 20.878 12.521l-1.756.958a21.558 21.558 0 0 0 -19.122-11.479zm20.1 13.447 1.79-.894 1 2-1.79.894z"/>
    <path d="m4 39h56v2h-56z"/>
    <path d="m54.346 43.079a2.526 2.526 0 0 0 -1.9.324.975.975 0 0 1 -.105.045l-10.441 3.289a3 3 0 0 1 -2.9 2.263h-10v-2h10a1 1 0 0 0 0-2h-21v8l18.812 1.485 17.564-8.785a1.447 1.447 0 0 0 .693-1.822 1.317 1.317 0 0 0 -.723-.799z"/>
    <path d="m14 43h2v13h-2z"/>
</g>
</svg>